# xmcd
#
# Track frame offsets:
#       150
#       26110
#       36217
#       53367
#
# Disc length: 1037 seconds
#
# Revision: 1
# Processed by: cddbd v1.4PL0 Copyright (c) Steve Scherf et al.
# Submitted via: MusiCat 1.1
#
DISCID=28040b04
DTITLE=Willy Deville - Live 02
DYEAR=1993
DGENRE=
TTITLE0=Jump City
TTITLE1=Every Dog (has its day)
TTITLE2=Hello my lover
TTITLE3=Iko, Iko
EXTD=1993\n\n\nsubmitted by Stamppot
EXTT0=
EXTT1=
EXTT2=
EXTT3=
PLAYORDER=
